<svg width="50" height="50" viewBox="0 0 50 50" fill="none" xmlns="http://www.w3.org/2000/svg">
<path d="M46.7049 38.0358C46.7049 39.495 45.5219 40.6669 44.0738 40.6669H5.93485C4.47559 40.6669 3.30371 39.4839 3.30371 38.0358C3.30371 36.5765 4.48675 35.4046 5.93485 35.4046H44.071C45.5219 35.3935 46.7049 36.5765 46.7049 38.0358Z" fill="#E6F4F1"/>
<path d="M46.7054 24.9889C46.7054 26.4481 45.5223 27.62 44.0742 27.62H5.94364C4.48438 27.62 3.3125 26.437 3.3125 24.9889C3.3125 23.5296 4.49554 22.3577 5.94364 22.3577H44.0742C45.5223 22.3438 46.7054 23.5268 46.7054 24.9889Z" fill="#E6F4F1"/>
<path d="M46.7049 11.9391C46.7049 13.3984 45.5219 14.5703 44.0738 14.5703H5.93485C4.47559 14.5703 3.30371 13.3872 3.30371 11.9391C3.30371 10.4799 4.48675 9.308 5.93485 9.308H44.071C45.5219 9.29684 46.7049 10.4799 46.7049 11.9391Z" fill="#E6F4F1"/>
</svg>
