<svg width="1440" height="2657" viewBox="0 0 1440 2657" fill="none" xmlns="http://www.w3.org/2000/svg">
<g filter="url(#filter0_f_30_16)">
<circle cx="65.5304" cy="94.5304" r="296.821" transform="rotate(15 65.5304 94.5304)" fill="#5C006B"/>
</g>
<g filter="url(#filter1_f_30_16)">
<path d="M1196.03 871.661C1266.53 907.868 1277.03 994.909 1014.05 982.109C1041.54 992.227 1135.74 1012.46 1292.53 1012.46C1488.52 1012.46 1457.02 1102.8 1489.52 1169.36C1522.01 1235.92 1225.53 1317.48 1196.03 1343.81C1166.54 1370.14 863.057 1410.37 803.061 1405.61C743.065 1400.86 616.073 1275.05 605.574 1250.91C595.074 1226.78 731.065 1146.68 825.559 1136.81C920.053 1126.93 892.055 1031.12 842.558 1012.46C793.061 993.812 739.565 853.01 842.558 771.454C945.551 689.898 1125.54 835.455 1196.03 871.661Z" fill="#0C8AFF"/>
</g>
<g filter="url(#filter2_f_30_16)">
<path d="M1121.5 785.091C1143.9 771.692 1233.04 711.404 1015.19 536.36C1023.56 575.985 1042.04 661.166 1049.03 684.897C1057.77 714.56 922.452 758.26 829.388 674.929C736.324 591.598 921.295 440.759 951.37 477.715C981.446 514.67 1129.91 436.907 1200.26 367.137C1270.6 297.367 1436.41 438.738 1495 499.533C1553.59 560.327 1621.81 604.554 1575.05 668.465C1528.29 732.376 1422.86 734.378 1428.71 800.769C1434.57 867.16 1410.65 1003.48 1306.99 1011.64C1203.32 1019.79 1099.1 798.49 1121.5 785.091Z" fill="#5C006B"/>
</g>
<g filter="url(#filter3_f_30_16)">
<path d="M1037.16 -80.6517C952.837 -321.828 1099.32 -149.232 1405.67 -32.8066C1460.91 -18.0726 1574.88 28.4367 1588.76 96.6018C1606.11 181.808 1616.68 467.076 1548.81 350.044C1480.94 233.011 1414.92 350.084 1341.62 391.389C1268.31 432.694 1149.73 569.259 1026.55 418.568C989.031 372.663 979.093 338.364 984.385 313.203C898.85 363.325 783.253 414.829 767.431 338.626C753.237 270.261 829.774 246.117 834.255 170.911C838.736 95.704 891.681 -24.3981 898.304 22.1858C904.927 68.7697 1104.61 112.289 1037.16 -80.6517Z" fill="#6B0040"/>
</g>
<g filter="url(#filter4_f_30_16)">
<path d="M269.953 900.999C238.455 711.129 256.166 917.354 74.3269 705.366C59.5927 705.05 25.554 704.465 7.27245 704.653C-15.5794 704.887 11.8033 864.96 4.52779 914.353C-2.74771 963.745 -106.145 901.468 -150.28 859.768C-194.415 818.068 -358.508 831.782 -428.277 900.834C-498.046 969.886 -395.987 1116.64 -301.137 1192.32C-206.288 1268.01 -89.6873 1325.16 -53.7297 1308.38C-17.7721 1291.6 -37.869 1208.85 24.1738 1039.21C86.2166 869.563 167.079 1107.37 206.421 1142.59C245.762 1177.81 301.451 1090.87 269.953 900.999Z" fill="#FF7020"/>
</g>
<g filter="url(#filter5_f_30_16)">
<path d="M1066.12 1814.04C1064.11 1769.69 1155.91 1691.45 1203.72 1635.19C1329.43 1637 1580.55 1641.01 1579.36 1642.57C1577.86 1644.52 1579.67 1807.81 1544.9 1815.18C1510.13 1822.54 1365.88 1842.44 1371.81 1857.56C1377.75 1872.67 1405.9 2050.64 1372.68 2108.82C1339.45 2167 1223.93 2236.29 1212.44 2247.31C1200.96 2258.32 1127.09 2260.42 1112.6 2249.27C1098.1 2238.11 1050.37 2195.81 1032.22 2187.43C1014.08 2179.06 987.752 2126.55 985.945 2115.85C984.138 2105.16 1050.94 1965.5 1067.17 1933.32C1083.39 1901.15 1068.13 1858.38 1066.12 1814.04Z" fill="#8850FF"/>
</g>
<g filter="url(#filter6_f_30_16)">
<path d="M53 1959.75C34 1989.75 -66 1986.25 -136 1986.25C-147 1844.41 -169 1557.75 -169 1545.75C-169 1530.75 -149.5 1484.75 -100.5 1475.75C-51.5 1466.75 9.5 1481.75 53 1493.75C96.5 1505.75 111 1536.75 118.5 1580.25C126 1623.75 187 1651.75 240.5 1672.25C294 1692.75 289.5 1724.25 270 1767.75C250.5 1811.25 222.5 1846.25 218 1859.75C213.5 1873.25 72 1929.75 53 1959.75Z" fill="#00FFF0"/>
</g>
<defs>
<filter id="filter0_f_30_16" x="-481.365" y="-452.365" width="1093.79" height="1093.79" filterUnits="userSpaceOnUse" color-interpolation-filters="sRGB">
<feFlood flood-opacity="0" result="BackgroundImageFix"/>
<feBlend mode="normal" in="SourceGraphic" in2="BackgroundImageFix" result="shape"/>
<feGaussianBlur stdDeviation="125" result="effect1_foregroundBlur_30_16"/>
</filter>
<filter id="filter1_f_30_16" x="305" y="447" width="1487" height="1259" filterUnits="userSpaceOnUse" color-interpolation-filters="sRGB">
<feFlood flood-opacity="0" result="BackgroundImageFix"/>
<feBlend mode="normal" in="SourceGraphic" in2="BackgroundImageFix" result="shape"/>
<feGaussianBlur stdDeviation="150" result="effect1_foregroundBlur_30_16"/>
</filter>
<filter id="filter2_f_30_16" x="503.448" y="48.2339" width="1387.14" height="1263.62" filterUnits="userSpaceOnUse" color-interpolation-filters="sRGB">
<feFlood flood-opacity="0" result="BackgroundImageFix"/>
<feBlend mode="normal" in="SourceGraphic" in2="BackgroundImageFix" result="shape"/>
<feGaussianBlur stdDeviation="150" result="effect1_foregroundBlur_30_16"/>
</filter>
<filter id="filter3_f_30_16" x="565.678" y="-402.226" width="1236.06" height="1089.91" filterUnits="userSpaceOnUse" color-interpolation-filters="sRGB">
<feFlood flood-opacity="0" result="BackgroundImageFix"/>
<feBlend mode="normal" in="SourceGraphic" in2="BackgroundImageFix" result="shape"/>
<feGaussianBlur stdDeviation="100" result="effect1_foregroundBlur_30_16"/>
</filter>
<filter id="filter4_f_30_16" x="-751.327" y="404.616" width="1330.55" height="1206.7" filterUnits="userSpaceOnUse" color-interpolation-filters="sRGB">
<feFlood flood-opacity="0" result="BackgroundImageFix"/>
<feBlend mode="normal" in="SourceGraphic" in2="BackgroundImageFix" result="shape"/>
<feGaussianBlur stdDeviation="150" result="effect1_foregroundBlur_30_16"/>
</filter>
<filter id="filter5_f_30_16" x="585.909" y="1235.19" width="1393.45" height="1421.48" filterUnits="userSpaceOnUse" color-interpolation-filters="sRGB">
<feFlood flood-opacity="0" result="BackgroundImageFix"/>
<feBlend mode="normal" in="SourceGraphic" in2="BackgroundImageFix" result="shape"/>
<feGaussianBlur stdDeviation="200" result="effect1_foregroundBlur_30_16"/>
</filter>
<filter id="filter6_f_30_16" x="-569" y="1073" width="1252.46" height="1313.37" filterUnits="userSpaceOnUse" color-interpolation-filters="sRGB">
<feFlood flood-opacity="0" result="BackgroundImageFix"/>
<feBlend mode="normal" in="SourceGraphic" in2="BackgroundImageFix" result="shape"/>
<feGaussianBlur stdDeviation="200" result="effect1_foregroundBlur_30_16"/>
</filter>
</defs>
</svg>
