<svg width="1440" height="5711" viewBox="0 0 1440 5711" fill="none" xmlns="http://www.w3.org/2000/svg">
<g filter="url(#filter0_f_30_16)">
<circle cx="65.5304" cy="94.5304" r="296.821" transform="rotate(15 65.5304 94.5304)" fill="#5C006B"/>
</g>
<g filter="url(#filter1_f_30_16)">
<path d="M1196.03 871.661C1266.53 907.868 1277.03 994.909 1014.05 982.109C1041.54 992.227 1135.74 1012.46 1292.53 1012.46C1488.52 1012.46 1457.02 1102.8 1489.52 1169.36C1522.01 1235.92 1225.53 1317.48 1196.03 1343.81C1166.54 1370.14 863.057 1410.37 803.061 1405.61C743.065 1400.86 616.073 1275.05 605.574 1250.91C595.074 1226.78 731.065 1146.68 825.559 1136.81C920.053 1126.93 892.055 1031.12 842.558 1012.46C793.061 993.812 739.565 853.01 842.558 771.454C945.551 689.898 1125.54 835.455 1196.03 871.661Z" fill="#0C8AFF"/>
</g>
<g filter="url(#filter2_f_30_16)">
<path d="M1121.5 785.091C1143.9 771.692 1233.04 711.404 1015.19 536.36C1023.56 575.985 1042.04 661.166 1049.03 684.897C1057.77 714.56 922.452 758.26 829.388 674.929C736.324 591.598 921.295 440.759 951.37 477.715C981.446 514.67 1129.91 436.907 1200.26 367.137C1270.6 297.367 1436.41 438.738 1495 499.533C1553.59 560.327 1621.81 604.554 1575.05 668.465C1528.29 732.376 1422.86 734.378 1428.71 800.769C1434.57 867.16 1410.65 1003.48 1306.99 1011.64C1203.32 1019.79 1099.1 798.49 1121.5 785.091Z" fill="#5C006B"/>
</g>
<g filter="url(#filter3_f_30_16)">
<path d="M1037.16 -80.6517C952.837 -321.828 1099.32 -149.232 1405.67 -32.8066C1460.91 -18.0726 1574.88 28.4367 1588.76 96.6018C1606.11 181.808 1616.68 467.076 1548.81 350.044C1480.94 233.011 1414.92 350.084 1341.62 391.389C1268.31 432.694 1149.73 569.259 1026.55 418.568C989.031 372.663 979.093 338.364 984.385 313.203C898.85 363.325 783.253 414.829 767.431 338.626C753.237 270.261 829.774 246.117 834.255 170.911C838.736 95.704 891.681 -24.3981 898.304 22.1858C904.927 68.7697 1104.61 112.289 1037.16 -80.6517Z" fill="#6B0040"/>
</g>
<g filter="url(#filter4_f_30_16)">
<path d="M269.953 900.999C238.455 711.129 256.166 917.354 74.3269 705.366C59.5927 705.05 25.554 704.465 7.27245 704.653C-15.5794 704.887 11.8033 864.96 4.52779 914.353C-2.74771 963.745 -106.145 901.468 -150.28 859.768C-194.415 818.068 -358.508 831.782 -428.277 900.834C-498.046 969.886 -395.987 1116.64 -301.137 1192.32C-206.288 1268.01 -89.6873 1325.16 -53.7297 1308.38C-17.7721 1291.6 -37.869 1208.85 24.1738 1039.21C86.2166 869.563 167.079 1107.37 206.421 1142.59C245.762 1177.81 301.451 1090.87 269.953 900.999Z" fill="#FF7020"/>
</g>
<g filter="url(#filter5_f_30_16)">
<path d="M1066.12 1814.04C1064.11 1769.69 1155.91 1691.45 1203.72 1635.19C1329.43 1637 1580.55 1641.01 1579.36 1642.57C1577.86 1644.52 1579.67 1807.81 1544.9 1815.18C1510.13 1822.54 1365.88 1842.44 1371.81 1857.56C1377.75 1872.67 1405.9 2050.64 1372.68 2108.82C1339.45 2167 1223.93 2236.29 1212.44 2247.31C1200.96 2258.32 1127.09 2260.42 1112.6 2249.27C1098.1 2238.11 1050.37 2195.81 1032.22 2187.43C1014.08 2179.06 987.752 2126.55 985.945 2115.85C984.138 2105.16 1050.94 1965.5 1067.17 1933.32C1083.39 1901.15 1068.13 1858.38 1066.12 1814.04Z" fill="#8850FF"/>
</g>
<g filter="url(#filter6_f_30_16)">
<path d="M53 1959.75C34 1989.75 -66 1986.25 -136 1986.25C-147 1844.41 -169 1557.75 -169 1545.75C-169 1530.75 -149.5 1484.75 -100.5 1475.75C-51.5 1466.75 9.5 1481.75 53 1493.75C96.5 1505.75 111 1536.75 118.5 1580.25C126 1623.75 187 1651.75 240.5 1672.25C294 1692.75 289.5 1724.25 270 1767.75C250.5 1811.25 222.5 1846.25 218 1859.75C213.5 1873.25 72 1929.75 53 1959.75Z" fill="#00FFF0"/>
</g>
<g filter="url(#filter7_f_30_16)">
<path d="M36.6266 5340.83C-8.34486 5407.86 14.8087 5362.34 -54.6521 5356.34C-74.0952 5207.1 -112.981 4906.13 -112.981 4896.12C-112.981 4883.62 -111.646 4789.57 -112.981 4765.06C-114.317 4740.55 -43.5205 4632 -8.34486 4632C26.8308 4632 89.6127 4702.53 116.774 4725.04C143.935 4747.55 188.906 4813.58 200.928 4830.59C212.95 4847.6 249.907 4917.63 284.192 4937.64C318.477 4957.65 417.325 4998.67 425.34 5010.68C433.355 5022.68 459.625 5058.2 452.501 5085.71C445.377 5113.22 422.668 5174.25 432.464 5180.25C442.26 5186.26 500.144 5267.8 493.465 5275.3C486.786 5282.8 312.689 5356.34 284.192 5356.34C255.695 5356.34 204.045 5270.8 160.409 5241.78C116.774 5212.77 81.598 5273.8 36.6266 5340.83Z" fill="#FF5732"/>
</g>
<g filter="url(#filter8_f_30_16)">
<path d="M1423.42 5240.15L1666.23 5217L1744 5423.61C1700.46 5547.5 1610.9 5798.13 1600.93 5809.53C1588.46 5823.78 1513.66 6005.46 1502.97 6012.58C1494.42 6018.28 1243.34 5964.29 1118.87 5936.59C1070.98 5903.34 971.28 5831.38 955.607 5809.53C936.016 5782.22 871.9 5704.44 884.961 5664.66C895.409 5632.84 849.34 5554.83 825 5519.8L871.9 5379.68L990.04 5240.15C1029.22 5226.3 1122.07 5211.66 1180.01 5263.9C1237.96 5316.15 1366.43 5269.84 1423.42 5240.15Z" fill="#8459FF"/>
</g>
<g filter="url(#filter9_f_30_16)">
<path d="M1196.93 4584.63C1208.42 4587.38 1310.43 4618.62 1360 4633.9C1344.11 4696.91 1310.62 4823.63 1303.73 4826.38C1296.84 4829.13 1192.15 4917.27 1140.66 4961L919.605 4901.42C905.059 4848.91 875.278 4741.82 872.522 4733.58C869.077 4723.26 853 4624.73 853 4612.7C853 4600.67 967.262 4560 1009.18 4560C1051.09 4560 1182.58 4581.2 1196.93 4584.63Z" fill="#1AFF91"/>
</g>
<g filter="url(#filter10_f_30_16)">
<path d="M381.429 2829.3C469.213 2845.73 416.432 2602.12 387.231 2575C375.826 2548.7 347.878 2498.33 327.327 2507.24C301.639 2518.38 252.387 2485.24 137.77 2488.62C23.1534 2492 122.802 2611.19 95.2131 2607.9C67.6244 2604.6 -55.0152 2574.4 -83.3343 2584.5C-111.653 2594.61 -123.974 2783.61 -91.3091 2837.57C-58.6447 2891.53 84.645 3052.29 96.4501 3049.35C108.255 3046.41 98.3397 2801.11 161.195 2699.73C224.051 2598.35 293.645 2812.87 381.429 2829.3Z" fill="#7266FF"/>
</g>
<g filter="url(#filter11_f_30_16)">
<path d="M1287.19 2933.63C1346 2944.64 1310.64 2781.42 1291.07 2763.24C1283.43 2745.62 1264.71 2711.87 1250.94 2717.84C1233.73 2725.31 1200.73 2703.1 1123.93 2705.37C1047.14 2707.63 1113.9 2787.49 1095.42 2785.29C1076.93 2783.08 994.762 2762.84 975.788 2769.61C956.813 2776.38 948.559 2903.01 970.444 2939.17C992.33 2975.32 1088.34 3083.03 1096.25 3081.06C1104.16 3079.1 1097.51 2914.74 1139.63 2846.81C1181.74 2778.89 1228.37 2922.62 1287.19 2933.63Z" fill="#FFA800"/>
</g>
<g filter="url(#filter12_f_30_16)">
<path d="M764.186 3630.63C823.002 3641.64 787.639 3478.42 768.074 3460.24C760.432 3442.62 741.706 3408.87 727.937 3414.84C710.725 3422.31 677.726 3400.1 600.931 3402.37C524.136 3404.63 590.902 3484.49 572.417 3482.29C553.932 3480.08 471.762 3459.84 452.788 3466.61C433.813 3473.38 425.559 3600.01 447.444 3636.17C469.33 3672.32 565.336 3780.03 573.246 3778.06C581.155 3776.1 574.512 3611.74 616.626 3543.81C658.74 3475.89 705.369 3619.62 764.186 3630.63Z" fill="#00B2FF"/>
</g>
<g filter="url(#filter13_f_30_16)">
<path d="M381.429 4338.3C469.213 4354.73 416.432 4111.12 387.231 4084C375.826 4057.7 347.878 4007.33 327.327 4016.24C301.639 4027.38 252.387 3994.24 137.77 3997.62C23.1534 4001 122.802 4120.19 95.2131 4116.9C67.6244 4113.6 -55.0152 4083.4 -83.3343 4093.5C-111.653 4103.61 -123.974 4292.61 -91.3091 4346.57C-58.6447 4400.53 84.645 4561.29 96.4501 4558.35C108.255 4555.41 98.3397 4310.11 161.195 4208.73C224.051 4107.35 293.645 4321.87 381.429 4338.3Z" fill="#000AFF"/>
</g>
<g filter="url(#filter14_f_30_16)">
<path d="M1287.19 4442.63C1346 4453.64 1310.64 4290.42 1291.07 4272.24C1283.43 4254.62 1264.71 4220.87 1250.94 4226.84C1233.73 4234.31 1200.73 4212.1 1123.93 4214.37C1047.14 4216.63 1113.9 4296.49 1095.42 4294.29C1076.93 4292.08 994.762 4271.84 975.788 4278.61C956.813 4285.38 948.559 4412.01 970.444 4448.17C992.33 4484.32 1088.34 4592.03 1096.25 4590.06C1104.16 4588.1 1097.51 4423.74 1139.63 4355.81C1181.74 4287.89 1228.37 4431.62 1287.19 4442.63Z" fill="#2400FF"/>
</g>
<defs>
<filter id="filter0_f_30_16" x="-481.365" y="-452.365" width="1093.79" height="1093.79" filterUnits="userSpaceOnUse" color-interpolation-filters="sRGB">
<feFlood flood-opacity="0" result="BackgroundImageFix"/>
<feBlend mode="normal" in="SourceGraphic" in2="BackgroundImageFix" result="shape"/>
<feGaussianBlur stdDeviation="125" result="effect1_foregroundBlur_30_16"/>
</filter>
<filter id="filter1_f_30_16" x="305" y="447" width="1487" height="1259" filterUnits="userSpaceOnUse" color-interpolation-filters="sRGB">
<feFlood flood-opacity="0" result="BackgroundImageFix"/>
<feBlend mode="normal" in="SourceGraphic" in2="BackgroundImageFix" result="shape"/>
<feGaussianBlur stdDeviation="150" result="effect1_foregroundBlur_30_16"/>
</filter>
<filter id="filter2_f_30_16" x="503.448" y="48.2339" width="1387.14" height="1263.62" filterUnits="userSpaceOnUse" color-interpolation-filters="sRGB">
<feFlood flood-opacity="0" result="BackgroundImageFix"/>
<feBlend mode="normal" in="SourceGraphic" in2="BackgroundImageFix" result="shape"/>
<feGaussianBlur stdDeviation="150" result="effect1_foregroundBlur_30_16"/>
</filter>
<filter id="filter3_f_30_16" x="565.678" y="-402.226" width="1236.06" height="1089.91" filterUnits="userSpaceOnUse" color-interpolation-filters="sRGB">
<feFlood flood-opacity="0" result="BackgroundImageFix"/>
<feBlend mode="normal" in="SourceGraphic" in2="BackgroundImageFix" result="shape"/>
<feGaussianBlur stdDeviation="100" result="effect1_foregroundBlur_30_16"/>
</filter>
<filter id="filter4_f_30_16" x="-751.327" y="404.616" width="1330.55" height="1206.7" filterUnits="userSpaceOnUse" color-interpolation-filters="sRGB">
<feFlood flood-opacity="0" result="BackgroundImageFix"/>
<feBlend mode="normal" in="SourceGraphic" in2="BackgroundImageFix" result="shape"/>
<feGaussianBlur stdDeviation="150" result="effect1_foregroundBlur_30_16"/>
</filter>
<filter id="filter5_f_30_16" x="585.909" y="1235.19" width="1393.45" height="1421.48" filterUnits="userSpaceOnUse" color-interpolation-filters="sRGB">
<feFlood flood-opacity="0" result="BackgroundImageFix"/>
<feBlend mode="normal" in="SourceGraphic" in2="BackgroundImageFix" result="shape"/>
<feGaussianBlur stdDeviation="200" result="effect1_foregroundBlur_30_16"/>
</filter>
<filter id="filter6_f_30_16" x="-569" y="1073" width="1252.46" height="1313.37" filterUnits="userSpaceOnUse" color-interpolation-filters="sRGB">
<feFlood flood-opacity="0" result="BackgroundImageFix"/>
<feBlend mode="normal" in="SourceGraphic" in2="BackgroundImageFix" result="shape"/>
<feGaussianBlur stdDeviation="200" result="effect1_foregroundBlur_30_16"/>
</filter>
<filter id="filter7_f_30_16" x="-513" y="4232" width="1407" height="1545" filterUnits="userSpaceOnUse" color-interpolation-filters="sRGB">
<feFlood flood-opacity="0" result="BackgroundImageFix"/>
<feBlend mode="normal" in="SourceGraphic" in2="BackgroundImageFix" result="shape"/>
<feGaussianBlur stdDeviation="200" result="effect1_foregroundBlur_30_16"/>
</filter>
<filter id="filter8_f_30_16" x="325" y="4717" width="1919" height="1796" filterUnits="userSpaceOnUse" color-interpolation-filters="sRGB">
<feFlood flood-opacity="0" result="BackgroundImageFix"/>
<feBlend mode="normal" in="SourceGraphic" in2="BackgroundImageFix" result="shape"/>
<feGaussianBlur stdDeviation="250" result="effect1_foregroundBlur_30_16"/>
</filter>
<filter id="filter9_f_30_16" x="453" y="4160" width="1307" height="1201" filterUnits="userSpaceOnUse" color-interpolation-filters="sRGB">
<feFlood flood-opacity="0" result="BackgroundImageFix"/>
<feBlend mode="normal" in="SourceGraphic" in2="BackgroundImageFix" result="shape"/>
<feGaussianBlur stdDeviation="200" result="effect1_foregroundBlur_30_16"/>
</filter>
<filter id="filter10_f_30_16" x="-410.808" y="2188.38" width="1140.64" height="1161.01" filterUnits="userSpaceOnUse" color-interpolation-filters="sRGB">
<feFlood flood-opacity="0" result="BackgroundImageFix"/>
<feBlend mode="normal" in="SourceGraphic" in2="BackgroundImageFix" result="shape"/>
<feGaussianBlur stdDeviation="150" result="effect1_foregroundBlur_30_16"/>
</filter>
<filter id="filter11_f_30_16" x="557.38" y="2305.2" width="1162.24" height="1175.89" filterUnits="userSpaceOnUse" color-interpolation-filters="sRGB">
<feFlood flood-opacity="0" result="BackgroundImageFix"/>
<feBlend mode="normal" in="SourceGraphic" in2="BackgroundImageFix" result="shape"/>
<feGaussianBlur stdDeviation="200" result="effect1_foregroundBlur_30_16"/>
</filter>
<filter id="filter12_f_30_16" x="34.3798" y="3002.2" width="1162.24" height="1175.89" filterUnits="userSpaceOnUse" color-interpolation-filters="sRGB">
<feFlood flood-opacity="0" result="BackgroundImageFix"/>
<feBlend mode="normal" in="SourceGraphic" in2="BackgroundImageFix" result="shape"/>
<feGaussianBlur stdDeviation="200" result="effect1_foregroundBlur_30_16"/>
</filter>
<filter id="filter13_f_30_16" x="-510.808" y="3597.38" width="1340.64" height="1361.01" filterUnits="userSpaceOnUse" color-interpolation-filters="sRGB">
<feFlood flood-opacity="0" result="BackgroundImageFix"/>
<feBlend mode="normal" in="SourceGraphic" in2="BackgroundImageFix" result="shape"/>
<feGaussianBlur stdDeviation="200" result="effect1_foregroundBlur_30_16"/>
</filter>
<filter id="filter14_f_30_16" x="557.38" y="3814.2" width="1162.24" height="1175.89" filterUnits="userSpaceOnUse" color-interpolation-filters="sRGB">
<feFlood flood-opacity="0" result="BackgroundImageFix"/>
<feBlend mode="normal" in="SourceGraphic" in2="BackgroundImageFix" result="shape"/>
<feGaussianBlur stdDeviation="200" result="effect1_foregroundBlur_30_16"/>
</filter>
</defs>
</svg>
