<svg width="757" height="384" viewBox="0 0 757 384" fill="none" xmlns="http://www.w3.org/2000/svg">
<path d="M1.41421 191.83L21.8369 171.417L21.8372 171.417L187.706 5.52772L1.41421 191.83ZM1.41421 191.83L21.8271 212.253L21.8273 212.253L187.706 378.142L1.41421 191.83ZM207.433 25.2429L207.434 25.2417C210.156 22.5286 211.51 18.9576 211.51 15.39C211.51 11.813 210.157 8.25113 207.433 5.52712C201.983 0.0876578 193.157 0.0876448 187.707 5.52707L207.433 25.2429ZM207.433 25.2429L52.7006 179.975C52.2723 180.363 51.8646 180.771 51.4776 181.2L51.4759 181.202M207.433 25.2429L51.4759 181.202M51.4759 181.202C48.9473 184.019 47.41 187.744 47.41 191.83C47.41 195.915 48.9468 199.651 51.4759 202.468L51.4939 202.488M51.4759 181.202L51.4939 202.488M51.4939 202.488L51.5114 202.509C51.5206 202.52 51.5352 202.537 51.5538 202.557C51.8928 202.937 52.2524 203.297 52.6328 203.636C52.6528 203.655 52.6697 203.669 52.6806 203.678L52.7018 203.696L207.433 358.427C212.872 363.866 212.873 372.694 207.432 378.143C204.707 380.858 201.145 382.22 197.57 382.22M51.4939 202.488L197.57 382.22M197.57 382.22C193.995 382.22 190.433 380.858 187.707 378.143L197.57 382.22Z" stroke="white" stroke-width="2"/>
<path d="M754.816 191.39L734.403 170.967L734.403 170.967L568.524 5.07833C568.524 5.07806 568.524 5.07778 568.523 5.07751C565.798 2.36183 562.235 1 558.66 1C555.085 1 551.522 2.36181 548.797 5.07745C543.357 10.5275 543.358 19.3541 548.797 24.7929L703.528 179.524L703.528 179.524L703.549 179.541C703.56 179.55 703.577 179.565 703.597 179.584C703.977 179.923 704.337 180.283 704.676 180.663C704.695 180.683 704.709 180.7 704.718 180.711L704.736 180.732L704.736 180.732L704.754 180.752C707.283 183.569 708.82 187.305 708.82 191.39C708.82 195.476 707.283 199.201 704.754 202.018L704.752 202.02C704.365 202.449 703.958 202.857 703.529 203.245L548.797 357.977L548.796 357.978C546.074 360.691 544.72 364.262 544.72 367.83C544.72 371.407 546.073 374.968 548.797 377.692C554.246 383.132 563.073 383.133 568.523 377.693L754.816 191.39ZM754.816 191.39L734.393 211.803L734.393 211.803L568.524 377.692L754.816 191.39Z" stroke="white" stroke-width="2"/>
<path d="M339.647 330.863L339.648 330.864C343.757 334.982 350.433 334.983 354.553 330.863C358.672 326.743 358.672 320.077 354.553 315.957L320.774 282.188L339.647 330.863ZM339.647 330.863L239.447 230.663C235.327 226.543 235.328 219.867 239.446 215.758L239.447 215.757M339.647 330.863L239.447 215.757M239.447 215.757C243.567 211.638 250.233 211.638 254.353 215.757L254.353 215.757M239.447 215.757L254.353 215.757M254.353 215.757L288.133 249.527C288.133 249.527 288.133 249.527 288.133 249.527C293.034 254.428 300.967 254.428 305.867 249.527L435.487 119.907C440.388 115.007 440.388 107.074 435.487 102.173C435.487 102.173 435.487 102.173 435.487 102.173L401.717 68.393L401.717 68.3929M254.353 215.757L401.717 68.3929M401.717 68.3929C397.598 64.2734 397.598 57.6065 401.717 53.4871C405.837 49.3676 412.503 49.3676 416.623 53.4871L516.823 153.687L516.824 153.688M401.717 68.3929L516.824 153.688M516.824 153.688C520.942 157.797 520.943 164.473 516.823 168.593C512.703 172.712 506.027 172.712 501.907 168.593M516.824 153.688L501.907 168.593M501.907 168.593L468.127 134.813M501.907 168.593L468.127 134.813M468.127 134.813C463.227 129.913 455.284 129.912 450.393 134.813M468.127 134.813L450.393 134.813M450.393 134.813L450.392 134.814M450.393 134.813L450.392 134.814M450.392 134.814L320.773 264.453C315.873 269.353 315.872 277.296 320.773 282.187L450.392 134.814Z" stroke="white" stroke-width="2"/>
</svg>
